<svg xmlns="http://www.w3.org/2000/svg" xmlns:xlink="http://www.w3.org/1999/xlink" width="500" zoomAndPan="magnify" viewBox="0 0 375 374.999991" height="500" preserveAspectRatio="xMidYMid meet" version="1.0"><defs><g/><clipPath id="6b450ad91a"><path d="M 117 141 L 144 141 L 144 215.160156 L 117 215.160156 Z M 117 141 " clip-rule="nonzero"/></clipPath><clipPath id="3deec6dd0f"><path d="M 103.898438 129 L 109 129 L 109 135 L 103.898438 135 Z M 103.898438 129 " clip-rule="nonzero"/></clipPath><clipPath id="bcbd92661b"><path d="M 232 141 L 259 141 L 259 215.242188 L 232 215.242188 Z M 232 141 " clip-rule="nonzero"/></clipPath><clipPath id="3c7c48d1a3"><path d="M 267 129 L 272.308594 129 L 272.308594 135 L 267 135 Z M 267 129 " clip-rule="nonzero"/></clipPath></defs><path fill="#ffd866" d="M 115.285156 145.925781 L 121.335938 145.925781 L 121.335938 139.894531 L 115.285156 139.894531 L 115.285156 145.925781 " fill-opacity="1" fill-rule="nonzero"/><path fill="#ffd866" d="M 116.714844 157.984375 L 121.335938 157.984375 L 121.335938 153.378906 L 116.714844 153.378906 L 116.714844 157.984375 " fill-opacity="1" fill-rule="nonzero"/><g clip-path="url(#6b450ad91a)"><path fill="#ffd866" d="M 134.320312 150.535156 L 134.320312 145.925781 L 129.695312 145.925781 L 129.695312 150.535156 Z M 122.558594 172.074219 C 123.71875 171.1875 124.582031 169.71875 125.148438 167.664062 C 125.460938 166.503906 125.648438 164.28125 125.707031 161 L 129.695312 161 L 129.695312 154.96875 L 125.796875 154.96875 C 125.890625 152.644531 126.097656 150.832031 126.40625 149.535156 C 126.855469 147.648438 127.714844 146.054688 128.976562 144.757812 C 130.242188 143.460938 131.800781 142.542969 133.65625 142.003906 C 135.511719 141.464844 138.179688 141.195312 141.660156 141.195312 L 143.707031 141.195312 L 143.707031 150.402344 C 140.796875 150.402344 138.921875 150.574219 138.082031 150.921875 C 137.246094 151.269531 136.664062 151.761719 136.34375 152.40625 C 136.019531 153.046875 135.847656 154.332031 135.820312 156.257812 C 135.691406 162.371094 135.488281 166.328125 135.203125 168.125 C 134.765625 170.746094 133.941406 172.902344 132.726562 174.597656 C 131.851562 175.777344 130.460938 176.984375 128.550781 178.21875 C 130.019531 179.066406 131.226562 180.046875 132.167969 181.167969 C 133.109375 182.285156 133.863281 183.644531 134.429688 185.25 C 134.996094 186.855469 135.34375 188.992188 135.472656 191.664062 C 135.679688 196.082031 135.789062 199.074219 135.800781 200.640625 C 135.816406 202.207031 136.019531 203.320312 136.421875 203.976562 C 136.820312 204.628906 137.445312 205.128906 138.296875 205.476562 C 139.148438 205.824219 140.953125 205.996094 143.707031 205.996094 L 143.707031 215.246094 L 141.660156 215.246094 C 138.285156 215.246094 135.808594 215.011719 134.234375 214.550781 C 131.890625 213.855469 130.113281 212.914062 128.898438 211.71875 C 127.6875 210.523438 126.855469 208.9375 126.40625 206.960938 C 125.957031 204.980469 125.730469 201.503906 125.730469 196.519531 C 125.730469 193.488281 125.625 191.355469 125.421875 190.125 C 125.136719 188.480469 124.652344 187.113281 123.96875 186.019531 C 123.289062 184.929688 122.46875 184.152344 121.515625 183.691406 C 120.5625 183.226562 119.144531 182.945312 117.261719 182.84375 L 117.261719 173.59375 C 119.632812 173.46875 121.398438 172.960938 122.558594 172.074219 " fill-opacity="1" fill-rule="nonzero"/></g><g clip-path="url(#3deec6dd0f)"><path fill="#ffd866" d="M 103.484375 134.214844 L 108.109375 134.214844 L 108.109375 129.605469 L 103.484375 129.605469 L 103.484375 134.214844 " fill-opacity="1" fill-rule="nonzero"/></g><path fill="#ffd866" d="M 126.671875 139.894531 L 135.300781 139.894531 L 135.300781 131.292969 L 126.671875 131.292969 L 126.671875 139.894531 " fill-opacity="1" fill-rule="nonzero"/><g fill="#202121" fill-opacity="1"><g transform="translate(110.668386, 236.853347)"><g><path d="M 41.71875 -3.726562 L 32.3125 -7.457031 C 30.359375 -8.34375 29.46875 -10.296875 30.179688 -12.25 C 32.664062 -18.996094 36.394531 -28.40625 40.832031 -39.945312 L 40.832031 -39.058594 L 78.648438 -39.058594 C 82.375 -39.058594 87.34375 -35.863281 88.765625 -32.3125 L 95.15625 -16.511719 C 96.933594 -12.25 94.800781 -7.632812 90.542969 -6.035156 L 84.148438 -3.726562 C 83.441406 -3.375 82.730469 -2.484375 82.730469 -1.597656 C 82.730469 -0.710938 83.441406 0 84.328125 0 L 125.160156 0 C 125.871094 0 126.582031 -0.710938 126.582031 -1.421875 C 126.582031 -2.128906 125.871094 -3.195312 125.335938 -3.375 L 118.945312 -6.214844 C 117.527344 -6.921875 113.976562 -10.828125 113.265625 -12.25 C 100.839844 -41.71875 71.191406 -113.796875 71.191406 -113.796875 L 70.300781 -115.929688 C 69.769531 -116.992188 68.351562 -118.058594 67.105469 -118.058594 L 65.507812 -118.058594 C 63.554688 -118.058594 60.894531 -116.285156 60.183594 -114.507812 L 57.519531 -108.292969 C 39.234375 -64.089844 25.386719 -30.179688 18.285156 -12.78125 C 17.574219 -11.007812 14.023438 -7.8125 12.425781 -7.101562 L 4.261719 -3.726562 C 3.550781 -3.550781 2.839844 -2.484375 2.839844 -1.597656 C 2.839844 -0.710938 3.550781 0 4.4375 0 L 41.363281 0 C 42.253906 0 42.960938 -0.710938 43.140625 -1.597656 C 43.140625 -2.484375 42.429688 -3.550781 41.71875 -3.726562 Z M 65.507812 -48.644531 L 51.308594 -48.644531 C 47.578125 -48.644531 45.09375 -51.484375 46.511719 -54.855469 C 50.242188 -64.445312 54.503906 -74.917969 58.941406 -86.28125 C 60.359375 -89.652344 64.800781 -90.007812 66.21875 -86.636719 L 75.628906 -63.734375 C 78.824219 -55.921875 73.851562 -48.644531 65.507812 -48.644531 Z M 65.507812 -48.644531 "/></g></g></g><g fill="#202121" fill-opacity="1"><g transform="translate(262.176491, 121.391154)"><g><path d="M -58.585938 1.773438 C -58.585938 2.484375 -57.875 3.726562 -56.988281 3.90625 L -48.820312 7.101562 C -45.09375 8.523438 -41.71875 13.492188 -41.71875 17.21875 L -41.71875 43.851562 C -41.71875 48.109375 -45.09375 51.484375 -49.355469 51.484375 L -56.988281 51.484375 C -85.214844 51.484375 -104.035156 64.800781 -104.035156 84.683594 C -104.035156 104.210938 -86.992188 117.171875 -61.425781 117.171875 L -13.316406 117.171875 C -12.25 117.171875 -11.539062 116.460938 -11.539062 115.574219 C -11.539062 114.683594 -12.25 113.441406 -13.136719 113.085938 L -19.351562 110.246094 C -22.546875 108.828125 -25.742188 103.855469 -25.742188 100.304688 L -25.742188 16.867188 C -25.742188 13.316406 -22.546875 8.34375 -19.351562 6.921875 L -13.136719 4.082031 C -12.25 3.726562 -11.539062 2.484375 -11.539062 1.773438 C -11.539062 0.710938 -12.25 0 -13.316406 0 L -56.988281 0 C -57.875 0 -58.585938 0.710938 -58.585938 1.773438 Z M -41.71875 70.835938 L -41.71875 104.035156 C -41.71875 105.808594 -42.960938 107.40625 -44.914062 107.40625 C -51.128906 107.40625 -57.519531 107.40625 -57.699219 107.230469 C -75.449219 107.230469 -87.167969 97.640625 -87.167969 83.261719 C -87.167969 70.125 -76.515625 61.25 -60.714844 61.25 L -51.308594 61.25 C -45.980469 61.25 -41.71875 65.507812 -41.71875 70.835938 Z M -41.71875 70.835938 "/></g></g></g><path fill="#ffd866" d="M 260.492188 145.925781 L 254.4375 145.925781 L 254.4375 139.894531 L 260.492188 139.894531 L 260.492188 145.925781 " fill-opacity="1" fill-rule="nonzero"/><path fill="#ffd866" d="M 259.0625 157.984375 L 254.4375 157.984375 L 254.4375 153.378906 L 259.0625 153.378906 L 259.0625 157.984375 " fill-opacity="1" fill-rule="nonzero"/><g clip-path="url(#bcbd92661b)"><path fill="#ffd866" d="M 241.457031 150.535156 L 241.457031 145.925781 L 246.082031 145.925781 L 246.082031 150.535156 Z M 253.21875 172.074219 C 252.058594 171.1875 251.195312 169.71875 250.628906 167.664062 C 250.316406 166.503906 250.128906 164.28125 250.070312 161 L 246.082031 161 L 246.082031 154.96875 L 249.980469 154.96875 C 249.886719 152.644531 249.679688 150.832031 249.371094 149.535156 C 248.921875 147.648438 248.0625 146.054688 246.800781 144.757812 C 245.535156 143.460938 243.976562 142.542969 242.121094 142.003906 C 240.265625 141.464844 237.597656 141.195312 234.117188 141.195312 L 232.070312 141.195312 L 232.070312 150.402344 C 234.980469 150.402344 236.855469 150.574219 237.695312 150.921875 C 238.53125 151.269531 239.113281 151.761719 239.433594 152.40625 C 239.757812 153.046875 239.929688 154.332031 239.957031 156.257812 C 240.085938 162.371094 240.289062 166.328125 240.574219 168.125 C 241.011719 170.746094 241.835938 172.902344 243.050781 174.597656 C 243.925781 175.777344 245.316406 176.984375 247.226562 178.21875 C 245.757812 179.066406 244.550781 180.046875 243.609375 181.167969 C 242.667969 182.285156 241.914062 183.644531 241.347656 185.25 C 240.78125 186.855469 240.433594 188.992188 240.304688 191.664062 C 240.097656 196.082031 239.988281 199.074219 239.976562 200.640625 C 239.960938 202.207031 239.757812 203.320312 239.355469 203.976562 C 238.957031 204.628906 238.332031 205.128906 237.480469 205.476562 C 236.628906 205.824219 234.824219 205.996094 232.070312 205.996094 L 232.070312 215.246094 L 234.117188 215.246094 C 237.492188 215.246094 239.96875 215.011719 241.539062 214.550781 C 243.886719 213.855469 245.664062 212.914062 246.878906 211.71875 C 248.089844 210.523438 248.921875 208.9375 249.371094 206.960938 C 249.820312 204.980469 250.046875 201.503906 250.046875 196.519531 C 250.046875 193.488281 250.152344 191.355469 250.355469 190.125 C 250.640625 188.480469 251.125 187.113281 251.808594 186.019531 C 252.488281 184.929688 253.308594 184.152344 254.261719 183.691406 C 255.214844 183.226562 256.632812 182.945312 258.515625 182.84375 L 258.515625 173.59375 C 256.144531 173.46875 254.378906 172.960938 253.21875 172.074219 " fill-opacity="1" fill-rule="nonzero"/></g><g clip-path="url(#3c7c48d1a3)"><path fill="#ffd866" d="M 272.292969 134.214844 L 267.667969 134.214844 L 267.667969 129.605469 L 272.292969 129.605469 L 272.292969 134.214844 " fill-opacity="1" fill-rule="nonzero"/></g><path fill="#ffd866" d="M 249.105469 139.894531 L 240.476562 139.894531 L 240.476562 131.292969 L 249.105469 131.292969 L 249.105469 139.894531 " fill-opacity="1" fill-rule="nonzero"/></svg>